<?xml version="1.0" encoding="UTF-8"?>
<svg id="Capa_2" data-name="Capa 2" xmlns="http://www.w3.org/2000/svg" xmlns:xlink="http://www.w3.org/1999/xlink" viewBox="0 0 1920.31 1080.97">
  <defs>
    <style>
      .cls-1 {
        fill: #cae8e7;
      }

      .cls-2 {
        fill: #f1e1ba;
      }

      .cls-3 {
        fill: #3b1854;
      }

      .cls-4 {
        clip-path: url(#clippath-1);
      }

      .cls-5 {
        clip-path: url(#clippath);
      }

      .cls-6 {
        fill: none;
      }

      .cls-7 {
        fill: #e39e30;
      }

      .cls-8 {
        fill: #f0f0eb;
      }

      .cls-9 {
        fill: #34224e;
      }

      .cls-10 {
        fill: #e3a832;
      }

      .cls-11 {
        fill: #db9bd7;
      }

      .cls-12 {
        fill: #f7e2ba;
      }
    </style>
    <clipPath id="clippath">
      <path class="cls-6" d="M0,0H1920V755.07c0,110.38-89.62,200-200,200H200C89.62,955.07,0,865.45,0,755.07V0H0Z"/>
    </clipPath>
    <clipPath id="clippath-1">
      <path class="cls-6" d="M0,736.81l.63,163.63s2.01,59.36,74.53,54.11l433.38,.33v-4.14C379.53,495.24,.63,440.84,.63,440.84L0,736.81"/>
    </clipPath>
  </defs>
  <g id="HEADER">
    <g id="BACKGROUND">
      <path class="cls-6" d="M1920,.97V827.79c0,110.46-89.54,200-200,200H200C89.54,1027.79,0,938.25,0,827.79V.97H1158.84"/>
      <rect class="cls-8" x="1.06" y="660.45" width="1918.94" height="420.52"/>
      <path class="cls-3" d="M.31,0H1920.31V895.41c0,32.46-26.36,58.82-58.82,58.82H60.31c-33.11,0-60-26.89-60-60V0H.31Z"/>
    </g>
    <g id="OBJECTS">
      <g class="cls-5">
        <g>
          <path class="cls-9" d="M1122.22,699.25s1.02,103.33,44.17,112.62c43.15,9.29,41.3,39.75-6.23,39.31-47.53-.44-101.6-55.35-37.94-151.93Z"/>
          <path class="cls-9" d="M1807.88,693.23s7.27,103.12-35.02,115.3c-42.29,12.18-38,42.43,9.37,38.78,47.37-3.64,96.88-62.06,25.65-154.08Z"/>
          <g>
            <path class="cls-10" d="M1561.68,1008.98c-26.15,1.74-54.87,2.52-86.51,2.32-31.63-.19-60.41-1.32-86.53-3.38-5.31-35.47,20.69-61.05,45.85-69.09,27.56-8.8,41.5-40.03,41.5-40.03,0,0,13.42,31.4,40.85,40.53,25.04,8.35,50.66,34.24,44.84,69.64Z"/>
            <path class="cls-10" d="M1503.56,967.47c-.1,14.24-12.77,25.71-28.28,25.62-15.52-.09-28.01-11.72-27.91-25.96,.1-14.24,12.77-25.71,28.28-25.62,15.52,.09,28.01,11.72,27.91,25.96Z"/>
          </g>
          <g>
            <path class="cls-10" d="M1390.44,352.57c1.82-2.1,18.7-15.06,28.72-33.7,4.99-9.45,7.42-19.93,4.55-31.76-.73-2.94-1.81-5.94-3.28-8.98-1.62-2.85-3.65-5.72-6.13-8.6-4.98-5.7-11.53-11.77-20.85-16.28-4.57-2.38-9.01-4.28-13.27-5.73-4.25-1.47-8.58-1.93-12.53-2.34-8-.6-15,.06-21.2,2.29-12.51,4.72-21.05,13.52-26.96,23.05-5.91,9.53-9.32,19.79-11.47,27.62-2.13,7.83-2.98,13.24-2.98,13.24,15.7,3.97,31.47,8.19,45.62,15.61,7.47,3.01,13.92,7.64,20.88,11.47,3.37,2.07,6.38,4.61,9.62,6.86,3.19,2.3,6.49,4.5,9.27,7.25Z"/>
            <path class="cls-10" d="M1304.39,305.13c.44-2.65,8-21.79,6.43-42.13-.9-10.18-4.43-20.76-13.32-29.79-4.43-4.53-10.33-7.85-17.72-10.78-3.7-1.38-7.79-2.73-12.27-3.52-4.49-.63-9.37-.99-14.63-1.04-10.55-.38-19.47,1.83-26.76,4.82-3.65,1.48-6.89,3.19-9.75,5.09-2.84,1.97-5.25,4.38-7.34,6.75-8.32,9.7-11.02,20.92-10.87,32.09,.15,11.17,2.82,21.69,5.23,29.47,2.44,7.77,4.64,12.81,4.64,12.81,3.79-1.39,7.79-2.1,11.75-2.92,3.97-.76,7.88-1.86,11.89-2.43,8.08-.72,16.06-2.4,24.22-2.18,16.24-1.15,32.47,1.22,48.51,3.79Z"/>
            <path class="cls-10" d="M1207.29,315.22c-1.07-2.5-4.94-22.48-17.46-39.51-6.28-8.29-15.44-16.57-27.79-19.66-6.2-1.61-13.32-2.21-21.37-1.45-7.83,1.13-16.43,3.96-25.76,8.4-8.92,5.05-15.68,10.74-20.53,16.42-4.49,6.15-7.09,12.33-8.2,18.26-.56,2.97-.74,5.89-.61,8.74,.25,2.97,.8,5.85,1.6,8.64,1.59,5.58,4.15,10.77,7.19,15.54,6.1,9.53,14.09,17.39,20.4,23.03,6.33,5.62,10.99,8.99,10.99,8.99l8.44-8.09,9.27-7.29,4.61-3.68,5.01-3.21,9.98-6.48,10.64-5.51,5.3-2.79,5.59-2.25,11.15-4.58,11.58-3.54Z"/>
          </g>
          <g>
            <path class="cls-2" d="M1412.18,465.08c1.15,.32,10.24,.95,18.32,5.15,7.96,4.16,15.04,12.99,9.52,27.75-5.77,14.72-18.07,16.45-27.63,14.38-9.72-2.07-17.65-7.34-17.65-7.34,7.81-12.47,14.1-26.63,17.43-39.94Z"/>
            <path class="cls-2" d="M1393.86,506.45c1.01,.6,9.37,3.85,15.66,10.17,6.11,6.16,10.35,16.36,.23,29.09-10.41,12.61-22.79,10.9-31.15,6.19-4.3-2.36-7.83-5.4-10.34-7.81-2.5-2.42-3.96-4.21-3.96-4.21,11.62-9.53,21.49-20.93,29.55-33.43Z"/>
            <path class="cls-2" d="M1362.99,540.95c.75,.86,7.59,6.35,11.41,14.15,1.91,3.95,2.91,8.43,1.69,13.26-1.15,4.85-4.7,9.96-11.75,14.42-14.39,8.88-25.46,3.38-31.66-3.54-3.19-3.47-5.43-7.4-6.94-10.44-1.49-3.04-2.23-5.17-2.23-5.17,14.36-5.72,27.86-13.12,39.48-22.67Z"/>
            <path class="cls-2" d="M1321.85,564.2c.41,1.04,4.91,8.3,5.7,16.77,.84,8.39-2.71,18.77-19.01,23.22-16.35,4.28-24.95-3.76-28.83-12.12-3.94-8.38-4.04-17.37-4.04-17.37,16.03-1.67,31.6-5.12,46.17-10.5Z"/>
            <path class="cls-2" d="M1273.88,574.91c.09,1.1,2.19,9.19,.41,17.62-.92,4.17-2.88,8.34-6.74,11.71-1.94,1.66-4.3,3.21-7.33,4.26-3.06,.99-6.73,1.63-11.01,1.79-17.45,0-23.41-10.31-24.23-19.14-.47-4.59,.13-9.02,.77-12.29,.65-3.28,1.36-5.42,1.36-5.42,15.09,3.06,30.36,3,46.77,1.46Z"/>
            <path class="cls-2" d="M1225.43,573.08c-.32,1.06-1.11,9.39-5.73,16.77-4.5,7.31-14.08,14.06-30.55,8.54-8.07-2.86-12.69-7.23-14.63-12-1.99-4.74-1.7-9.5-.3-13.97,1.37-4.43,3.66-8.35,5.55-11.19,1.9-2.84,3.41-4.6,3.41-4.6,12.97,7.93,27.34,13.3,42.24,16.44Z"/>
            <path class="cls-2" d="M1181.73,555.74c-.71,.89-4.72,8.38-11.93,13.77-3.63,2.68-8.19,4.83-13.51,4.96-5.41,.24-11.63-1.54-18.17-6.45-12.97-10.12-10.4-21.19-5.05-28.75,5.39-7.66,13.48-12.74,13.48-12.74,10.46,11.27,22.16,21.34,35.18,29.2Z"/>
            <path class="cls-2" d="M1145.36,525.28c-.93,.67-7.14,6.81-15.68,10.07-8.46,3.26-20.07,3.43-29.91-8.76-9.71-12.28-4.7-22.39,2.26-28.79,7.01-6.47,16.06-9.91,16.06-9.91,7.87,13.34,16.98,25.94,27.27,37.39Z"/>
            <path class="cls-2" d="M1117.21,486.38c-1.07,.5-8.49,5.32-17.6,6.93-9.05,1.61-20.28-.24-27.48-13.7-7.05-13.55-.31-22.82,7.88-27.91,4.11-2.59,8.59-4.27,12.03-5.34,3.44-1.07,5.82-1.55,5.82-1.55,4.86,13.9,11.64,28.25,19.35,41.56Z"/>
          </g>
          <path class="cls-1" d="M1159.18,660.3c-54.96,50.19-129.24-15.59-178.73-59.88-2.77-10.29-.36,2.45,.03-7.58,34.42,17.48,76.67,33.53,102.23,23.66,33.08-12.8,21.95-29.91,6.09-37.01,.06,.12,.06,.18,.13,.3,1.19,5.65-2.8,11.14-8.95,12.23-6.15,1.15-12.14-2.51-13.4-8.16-.44-2.2-.16-4.33,.76-6.23l.06-.12c1.12-2.19,4.32-7.28,14.42-8.34,18.58-2.02,44.57,18.02,37.71,36.62-7.72,20.67-33.59,28.89-33.59,28.89,0,0,16.27,31.15,60.66,12.07,17.13-7.38,18-28.92,11.54-38.88-1.45,3.08-4.44,5.44-8.2,6.12-6.15,1.15-12.14-2.51-13.4-8.22-1.25-5.65,2.86-10.73,8.89-12.23,21.32-5.33,43.44,39.62,13.75,66.75Z"/>
          <g>
            <path class="cls-1" d="M1187.85,884.16c35.59,17.56,60.03,17.71,85.91,17.88,16.44,.1,33.44,.21,53.73,4.87,20.15,4.62,30.95,18.46,27.51,35.27-3.96,19.38-26.56,37.27-57.53,33.68-52.84-6.14-112.19-83.19-114.69-86.46l-9.47-12.41,14.54,7.18Z"/>
            <path class="cls-1" d="M1321.44,930.57c-4.5-8.71-15.84-12.42-25.33-8.29-9.49,4.13-13.54,14.53-9.04,23.24,4.5,8.71,15.84,12.42,25.32,8.29,9.49-4.13,13.53-14.53,9.04-23.24Z"/>
            <path class="cls-1" d="M1267.09,923.26c-2.49-4.81-8.76-6.87-14-4.59-5.25,2.28-7.48,8.04-4.99,12.85,2.49,4.81,8.75,6.87,14,4.59,5.24-2.28,7.48-8.03,4.99-12.85Z"/>
          </g>
          <path class="cls-11" d="M1313.07,632.9c-27.82-17.33-46.77,17.33-46.77,17.33,0,0-17.33-35.37-45.93-19.13-40.32,22.89,44.52,79.9,44.52,79.9,0,0,87.41-53.66,48.18-78.1Z"/>
          <ellipse class="cls-9" cx="1259.4" cy="431.02" rx="160.07" ry="146.9"/>
          <path class="cls-11" d="M1328.75,376.07c-41.78-25.22-69.14,26.7-69.14,26.7,0,0-26.61-52.24-68.75-27.54-59.42,34.84,68.09,117.92,68.09,117.92,0,0,128.7-81.52,69.79-117.08Z"/>
          <g>
            <path class="cls-10" d="M1569.37,353.66c-1.79-2.12-18.48-15.29-28.24-34.04-4.85-9.51-7.14-20.02-4.09-31.81,.77-2.93,1.89-5.92,3.41-8.94,1.66-2.83,3.73-5.68,6.25-8.52,5.06-5.64,11.7-11.63,21.08-16.02,4.61-2.33,9.08-4.17,13.35-5.57,4.27-1.41,8.61-1.83,12.56-2.18,8.01-.5,15,.24,21.16,2.55,12.44,4.87,20.85,13.77,26.62,23.37,5.77,9.6,9.03,19.9,11.07,27.76,2.02,7.86,2.79,13.28,2.79,13.28-15.76,3.78-31.59,7.81-45.84,15.05-7.51,2.92-14.03,7.47-21.04,11.22-3.4,2.03-6.45,4.53-9.72,6.74-3.23,2.26-6.55,4.42-9.37,7.13Z"/>
            <path class="cls-10" d="M1656.09,307.27c-.4-2.66-7.69-21.89-5.82-42.2,1.04-10.17,4.73-20.7,13.75-29.63,4.5-4.48,10.44-7.72,17.87-10.57,3.72-1.33,7.83-2.63,12.32-3.37,4.5-.58,9.39-.88,14.65-.86,10.56-.25,19.44,2.06,26.69,5.14,3.63,1.53,6.85,3.28,9.68,5.2,2.82,2,5.19,4.44,7.24,6.84,8.18,9.8,10.71,21.05,10.4,32.22-.31,11.17-3.14,21.65-5.66,29.4-2.55,7.74-4.82,12.75-4.82,12.75-3.77-1.43-7.76-2.2-11.71-3.07-3.96-.81-7.85-1.95-11.85-2.58-8.07-.82-16.03-2.59-24.18-2.48-16.23-1.35-32.49,.82-48.56,3.19Z"/>
            <path class="cls-10" d="M1753.04,318.54c1.11-2.48,5.27-22.42,18.03-39.3,6.4-8.21,15.67-16.38,28.07-19.32,6.22-1.53,13.35-2.05,21.38-1.19,7.82,1.23,16.37,4.16,25.64,8.72,8.84,5.16,15.52,10.93,20.29,16.67,4.4,6.2,6.91,12.41,7.94,18.36,.51,2.98,.66,5.9,.49,8.74-.29,2.96-.89,5.84-1.72,8.61-1.67,5.56-4.3,10.72-7.41,15.45-6.24,9.45-14.34,17.22-20.73,22.78-6.41,5.54-11.12,8.86-11.12,8.86l-8.32-8.19-9.16-7.41-4.56-3.73-4.96-3.27-9.88-6.6-10.56-5.64-5.26-2.85-5.56-2.32-11.08-4.71-11.52-3.68Z"/>
          </g>
          <g>
            <path class="cls-2" d="M1546,465.9c-1.16,.3-10.25,.82-18.39,4.93-8.02,4.06-15.22,12.8-9.92,27.63,5.56,14.79,17.83,16.67,27.42,14.71,9.75-1.95,17.75-7.12,17.75-7.12-7.63-12.56-13.72-26.8-16.85-40.15Z"/>
            <path class="cls-2" d="M1563.72,507.48c-1.02,.58-9.42,3.74-15.81,9.98-6.2,6.09-10.59,16.23-.65,29.08,10.23,12.73,22.63,11.17,31.06,6.57,4.33-2.31,7.91-5.3,10.45-7.68,2.53-2.39,4.02-4.16,4.02-4.16-11.49-9.67-21.19-21.19-29.07-33.79Z"/>
            <path class="cls-2" d="M1594.09,542.35c-.77,.85-7.68,6.26-11.61,14.01-1.97,3.93-3.03,8.4-1.88,13.23,1.08,4.87,4.55,10.02,11.54,14.56,14.26,9.06,25.41,3.69,31.71-3.15,3.24-3.44,5.54-7.33,7.09-10.36,1.54-3.02,2.3-5.14,2.3-5.14-14.28-5.89-27.67-13.46-39.15-23.15Z"/>
            <path class="cls-2" d="M1634.89,566.1c-.42,1.03-5.03,8.24-5.95,16.7-.96,8.38,2.44,18.8,18.67,23.45,16.28,4.48,25.01-3.45,29-11.76,4.06-8.33,4.29-17.32,4.29-17.32-16-1.87-31.53-5.5-46.01-11.06Z"/>
            <path class="cls-2" d="M1682.7,577.4c-.1,1.1-2.33,9.16-.67,17.61,.86,4.18,2.76,8.37,6.57,11.79,1.92,1.68,4.25,3.26,7.26,4.35,3.05,1.03,6.7,1.71,10.98,1.92,17.45,.21,23.56-10.03,24.51-18.84,.54-4.58,0-9.02-.59-12.3-.6-3.29-1.28-5.43-1.28-5.43-15.13,2.88-30.4,2.63-46.78,.9Z"/>
            <path class="cls-2" d="M1731.17,576.16c.3,1.07,.98,9.4,5.48,16.84,4.4,7.36,13.88,14.23,30.43,8.92,8.11-2.76,12.79-7.08,14.8-11.82,2.06-4.72,1.83-9.48,.5-13.96-1.31-4.44-3.54-8.39-5.39-11.26-1.86-2.86-3.34-4.64-3.34-4.64-13.09,7.78-27.53,12.97-42.48,15.92Z"/>
            <path class="cls-2" d="M1775.12,559.35c.7,.9,4.6,8.44,11.73,13.91,3.59,2.72,8.12,4.93,13.44,5.12,5.4,.31,11.65-1.4,18.26-6.23,13.11-9.96,10.71-21.06,5.46-28.69-5.28-7.73-13.3-12.9-13.3-12.9-10.63,11.14-22.46,21.07-35.59,28.77Z"/>
            <path class="cls-2" d="M1811.93,529.33c.93,.68,7.04,6.9,15.53,10.26,8.41,3.37,20.02,3.68,30.04-8.4,9.89-12.16,5.02-22.33-1.85-28.81-6.92-6.56-15.91-10.1-15.91-10.1-8.06,13.24-17.35,25.73-27.81,37.05Z"/>
            <path class="cls-2" d="M1840.64,490.78c1.07,.51,8.42,5.42,17.5,7.15,9.03,1.72,20.29,0,27.68-13.37,7.24-13.46,.64-22.81-7.48-28-4.07-2.64-8.52-4.37-11.95-5.48-3.42-1.11-5.8-1.62-5.8-1.62-5.06,13.84-12.05,28.1-19.95,41.32Z"/>
          </g>
          <path class="cls-1" d="M1921.06,620.32c-18.13,4.74-35.11,6.08-47.81,.99-32.9-13.2-21.52-30.17-5.55-37.08-.06,.12-.07,.18-.13,.3-1.27,5.63,2.64,11.18,8.77,12.34,6.14,1.22,12.18-2.36,13.51-7.99,.47-2.19,.23-4.33-.67-6.24l-.06-.12c-1.08-2.2-4.22-7.33-14.3-8.52-18.55-2.25-44.83,17.48-38.23,36.16,7.42,20.76,33.17,29.29,33.17,29.29,0,0-16.72,30.95-60.82,11.32-17.02-7.58-17.58-29.14-10.97-39.01,1.4,3.1,4.36,5.49,8.11,6.22,6.14,1.22,12.18-2.36,13.51-8.05,1.34-5.63-2.7-10.76-8.71-12.34-21.24-5.59-44.01,39.09-14.71,66.58,37.3,34.97,82.78,26.08,123.85,2.9"/>
          <g>
            <path class="cls-1" d="M1778.89,880.67l-9.65,12.29c-2.55,3.25-63,79.56-115.93,85.06-31.02,3.21-53.36-14.95-57.04-34.38-3.19-16.85,7.81-30.56,28.02-34.93,20.36-4.41,37.36-4.31,53.8-4.21,25.88,.15,50.32,.29,86.16-16.83l14.64-7Z"/>
            <path class="cls-1" d="M1630.01,932.45c4.62-8.65,16.02-12.23,25.44-7.99,9.43,4.24,13.32,14.7,8.7,23.35-4.62,8.65-16.01,12.23-25.44,7.98-9.43-4.24-13.32-14.7-8.7-23.35Z"/>
            <path class="cls-1" d="M1684.46,925.8c2.56-4.78,8.85-6.76,14.07-4.41,5.21,2.35,7.37,8.13,4.81,12.91-2.56,4.78-8.85,6.76-14.07,4.41-5.21-2.35-7.36-8.13-4.81-12.91Z"/>
          </g>
          <path class="cls-11" d="M1642.68,634.91c28.07-16.99,46.52,17.9,46.52,17.9,0,0,17.84-35.15,46.2-18.57,39.99,23.38-45.67,79.35-45.67,79.35,0,0-86.63-54.72-47.05-78.68Z"/>
          <path class="cls-9" d="M1859.33,434.67c-.59,81.13-72.72,146.46-161.12,145.92-88.4-.54-159.59-66.74-159-147.87,.59-81.13,72.72-146.46,161.12-145.92,88.4,.54,159.59,66.74,159,147.87Z"/>
          <path class="cls-11" d="M1630.71,377.91c42.14-24.71,68.74,27.53,68.74,27.53,0,0,27.36-51.92,69.14-26.7,58.91,35.56-69.79,117.08-69.79,117.08,0,0-127.51-83.08-68.09-117.92Z"/>
          <path class="cls-7" d="M1919.85,564.92c-1.93,.41-3.94,.63-6.01,.62-14.12-.09-25.49-10.66-25.4-23.62,.09-12.96,11.62-23.4,25.74-23.31,1.77,.01,3.49,.19,5.15,.51"/>
          <path class="cls-7" d="M1529.31,188.53c-8-19.33-27.16-13.77-27.16-13.77,.31-17.56-21.54-22.97-21.54-22.97,0,0-21.92,5.15-21.87,22.71,0,0-19.08-5.8-27.36,13.43-8.28,19.23,16.25,26.05,24.18,42.09,7.93,16.04,23.55,129.42,23.55,129.42,0,0,17.26-113.18,25.41-129.12,8.16-15.94,32.78-22.46,24.78-41.79Z"/>
          <path class="cls-11" d="M1499.31,197c-.08,11.01-9.86,19.87-21.86,19.79-11.99-.07-21.65-9.05-21.57-20.06,.08-11.01,9.87-19.87,21.86-19.79,11.99,.07,21.65,9.06,21.57,20.06Z"/>
          <path class="cls-11" d="M1478.35,569.36s-102.83,92.38-71.73,116.32c31.09,23.94,70.99-13.42,70.99-13.42,0,0,39.35,37.84,70.79,14.28,31.44-23.56-70.05-117.18-70.05-117.18Z"/>
          <g>
            <g>
              <path class="cls-2" d="M1672.22,733.73c-19.81,1.79-27.54,52.58-27.66,52.62-.14-.06-18.37-49.3-46.23-42.09-23.64,5.91-27.08,45.46-27.58,57.78,45.79-3.93,92.03-10.8,138.61-20.52-5.74-14.24-21.34-49.24-37.14-47.78Z"/>
              <path class="cls-2" d="M1522.34,748.92c-28.76,.55-40.66,32.22-45.68,53.06-4.72-20.9-16.16-52.72-44.91-53.62-36.76-1.57-46.68,41.61-48.69,53.33,61.35,5.67,123.79,5.79,187.07,.39-2.09-12.65-11.7-54.27-47.79-53.17Z"/>
              <path class="cls-2" d="M1355.83,742.78c-27.75-7.54-46.69,41.47-46.84,41.53-.12-.05-7.11-50.92-26.89-52.95-15.85-1.66-32.04,33.49-37.91,47.53,45.43,10.79,91.59,18.43,138.4,22.78-.22-11.38-2.71-52.57-26.76-58.88Z"/>
            </g>
            <path class="cls-2" d="M1471.65,824.02c-78.29-.48-155.06-9.69-229.89-27.43,1.1,17.84,5.46,56.59,21.81,61.98,21.34,6.97,41.27-39.19,41.14-39.19-.13-.11,7.04,54.44,38.64,55.5,31.48,.76,38.09-53.82,38.07-53.71,.02-.24-2.41,59.75,44.45,64.37,31.98,2.75,45.5-29.78,50.54-50.35,4.74,20.62,17.79,53.33,49.81,50.96,46.92-4.05,45.36-64.06,45.38-63.82-.01-.09,5.8,54.54,37.29,54.17,31.61-.67,39.57-55.13,39.44-55.02-.13,0,19.13,46.39,40.57,39.69,16.5-5.21,21.38-44.21,22.72-61.93-81.16,16.94-161.33,25.28-239.97,24.8Z"/>
          </g>
          <path class="cls-7" d="M1043.28,513.31c-14.12-.09-25.64,10.35-25.74,23.31-.09,12.96,11.28,23.53,25.4,23.62,14.12,.09,25.65-10.35,25.74-23.31,.09-12.96-11.28-23.54-25.4-23.62Z"/>
          <path class="cls-1" d="M1689.29,0s-93.94,36.49-85.31,44.83c8.63,8.35,169.11-32.68,169.11-32.68,0,0,112.42,136.57,110.97,113.96s-44.41-111.94-44.41-111.94c0,0,26.78-5.71,34.63-14.17"/>
          <path class="cls-12" d="M1499.31,0c-12.56,25.94,1.15,19.79,1.15,19.79,0,0-8.59,17.29-2.72,31.1,5.21,12.28,24.55,22.11,30.33,10,3.33-6.99,181.2-62.27,211.1-60.88"/>
          <path class="cls-12" d="M1749.72,29.75c-3.69,6-66.39,152.42-92.99,165.67-26.6,13.24-50.38-10.7-50.38-10.7,0,0-42.09-4.82-47.44-43.06-2.19-15.66-29.21-8.87-11.52-45.56,9.63-19.98,144.11-81.82,181.25-85.49,37.14-3.67,21.08,19.15,21.08,19.15Z"/>
          <path class="cls-12" d="M1884.21,187.13c-16.51,23.51-42.78,17.03-42.78,17.03,0,0-15.98,41.28-66.67-.95-12.74-10.61-66.86-3.07-45.16-37.77,15.26-24.4,46.53-129.62,43.49-153.29-4.47-34.8,134.09,142.28,111.12,174.98Z"/>
          <path class="cls-12" d="M1917.96,164.27c2.04-49.33-82.35-146.07-118.85-155.07-34.22-8.44,120.89-9.2,120.89-9.2"/>
          <path class="cls-10" d="M1800.8,1.6c25.87,4.34,50.25,15.04,71.84,28.92,5.45,3.44,10.5,7.37,15.64,11.18,4.75,4.24,9.88,8.08,14.14,12.74,9.21,8.7,16.57,18.91,22.98,29.34-9.08-8.71-17.87-17.33-27.57-25.07-9.53-7.87-19.5-15.25-30.03-21.92-10.38-6.85-21.25-13.11-32.43-18.94-11.22-5.76-22.64-11.32-34.57-16.25Z"/>
          <path class="cls-10" d="M1779.95,26.76c14.36,20.48,22.72,44.32,26.68,68.45,1.05,6.04,1.44,12.16,1.99,18.25-.06,6.12,.46,12.22-.26,18.31-.48,12.2-3.42,24.19-7.18,35.69,.58-12.12,1.29-23.98,.69-35.86-.39-11.85-1.46-23.66-3.46-35.36-1.77-11.73-4.33-23.37-7.44-34.94-3.2-11.55-6.68-23.09-11.02-34.55Z"/>
          <path class="cls-10" d="M1791.74,30.47c8.28,7.58,15.13,16.44,20.94,25.75,5.88,9.3,10.73,19.13,14.78,29.23,3.77,10.17,7.17,20.5,9.04,31.11,2.23,10.53,2.96,21.3,2.89,31.98l-9.25-30.61c-3.11-10.1-6.75-20.02-10.55-29.87-3.78-9.86-8.15-19.51-12.71-29.13-4.71-9.54-9.48-19.12-15.14-28.46Z"/>
          <path class="cls-7" d="M1733.93,13.99c-10.61,5.01-20.65,10.65-30.63,16.28-9.89,5.77-19.68,11.63-29.1,17.98-9.44,6.31-18.79,12.76-27.84,19.63l-27.26,20.85c6.8-9,14.3-17.64,22.88-25.3,8.33-7.92,17.72-14.83,27.33-21.41,9.77-6.39,20.05-12.15,30.84-16.97,10.74-4.86,22.05-8.83,33.79-11.05Z"/>
          <path class="cls-10" d="M1739.16,22.31c-7.35,8.94-14.34,17.96-21.35,26.91-6.89,9.03-13.65,18.09-19.99,27.39-6.55,9.18-12.31,18.77-18.05,28.39-5.63,9.7-10.63,19.67-15.59,29.94,1.82-11.05,4.89-22.09,9.67-32.47,4.67-10.41,10.31-20.48,16.9-29.97,13.25-18.89,29.1-36.38,48.41-50.19Z"/>
          <path class="cls-7" d="M1680.55,9.83c-14.68,.48-29.22,1.43-43.69,2.43-14.46,1.14-28.85,2.53-43.13,4.53-14.27,2.01-28.36,4.76-42.34,8.05-13.86,3.66-27.49,7.98-40.94,13.53,11.75-8.11,25.03-14.52,38.95-19.24,13.98-4.57,28.45-7.73,43.06-9.93,29.26-3.8,59.11-4.23,88.09,.63Z"/>
          <path class="cls-1" d="M1158.45,0c-130.72,76.29-131.82,287.41-131.82,287.41,0,0,109.86-140.69,212.96-177.5,72.49-23.89,90.44-77.76,66.57-109.86"/>
          <path class="cls-12" d="M1262.18,47.52c-.16,22.75-20.39,41.06-45.17,40.91-24.78-.15-44.74-18.71-44.58-41.46,.16-22.75,20.39-41.06,45.17-40.91,24.78,.15,44.74,18.71,44.58,41.46Z"/>
          <path class="cls-12" d="M1169.18,97.27c-.1,13.84-12.4,24.98-27.48,24.89-15.08-.09-27.22-11.39-27.12-25.22,.1-13.84,12.41-24.98,27.48-24.89,15.08,.09,27.22,11.38,27.12,25.22Z"/>
          <path class="cls-12" d="M1117.15,149.39c-.07,10.21-9.15,18.43-20.28,18.37-11.13-.07-20.09-8.4-20.01-18.61,.07-10.21,9.15-18.43,20.28-18.37,11.12,.07,20.09,8.4,20.01,18.61Z"/>
          <path class="cls-12" d="M1081.39,196.94c-.04,6.16-5.52,11.12-12.23,11.08-6.71-.04-12.11-5.07-12.07-11.22,.04-6.16,5.52-11.12,12.23-11.08,6.71,.04,12.11,5.07,12.07,11.22Z"/>
        </g>
      </g>
      <g class="cls-4">
        <path class="cls-1" d="M16.09,941.85s9.15-332.69,109.96-293.28c96.24,37.62-109.96,293.28-109.96,293.28Z"/>
        <path class="cls-11" d="M367.04,683.31c-4.85-28.85-41.94-18.86-41.94-18.86,0,0,14.84-33.65-14.9-41.58-41.94-11.18-30.16,79.46-30.16,79.46,0,0,93.84,21.66,87-19.02Z"/>
        <path class="cls-1" d="M0,479.18c2.06-1.54,65.18-41.39,116.6,6.62,44.57,41.62,52.63,92.61,71.53,90.13,18.91-2.48,15.01-26.76,6.05-30.46,0,0,16.91-7.67,24.84,8.32,12.79,25.79-29.6,66.64-58.51,31.14-28.9-35.5-39.72-64.64-76.51-85.85C46.95,477.72,0,479.18,0,479.18Z"/>
        <path class="cls-1" d="M508.54,954.71c-2.6,.34-78.36,4.47-96.99-61.57-16.15-57.24,4.21-105.07-13.42-111.99-17.63-6.92-27.27,15.88-21.52,23.37,0,0-18.68-1.49-16.96-19.07,2.78-28.37,61.2-43.29,67.12,1.18,5.91,44.46-.36,74.78,20.01,110.68,20.51,36.17,61.78,57.41,61.78,57.41Z"/>
        <path class="cls-1" d="M16.09,941.85s-183.04-271.53-78.45-301.08c99.86-28.21,78.45,301.08,78.45,301.08Z"/>
        <path class="cls-1" d="M16.09,941.85s189.48-268.45,249.48-174.55c57.28,89.64-249.48,174.55-249.48,174.55Z"/>
        <path class="cls-1" d="M16.09,941.85s300.22-105.63,297.39,8.28c-2.71,108.75-297.39-8.28-297.39-8.28Z"/>
        <path class="cls-1" d="M16.09,941.85s300.73,95.98,236.1,188.07c-61.71,87.92-236.1-188.07-236.1-188.07Z"/>
      </g>
    </g>
  </g>
</svg>